<?xml version="1.0" encoding="utf-8"?>
<!-- Uploaded to: SVG Repo, www.svgrepo.com, Generator: SVG Repo Mixer Tools -->
<svg fill="#000000" width="800px" height="800px" viewBox="0 0 32 32" version="1.1" xmlns="http://www.w3.org/2000/svg">
<title>atlassian</title>
<path d="M15.293 1.487c-1.963 2.981-3.132 6.637-3.132 10.565 0 3.123 0.738 6.074 2.050 8.687l-0.051-0.112 4.936 9.872c0.148 0.29 0.443 0.485 0.785 0.485h10.235c0 0 0.001 0 0.001 0 0.485 0 0.879-0.393 0.879-0.879 0-0.143-0.034-0.278-0.095-0.397l0.002 0.005-14.116-28.234c-0.138-0.278-0.42-0.465-0.745-0.465-0.329 0-0.613 0.191-0.747 0.468l-0.002 0.005zM9.902 14.855c-0.158-0.204-0.402-0.334-0.677-0.334-0.34 0-0.633 0.198-0.771 0.486l-0.002 0.005-7.354 14.701c-0.059 0.115-0.093 0.25-0.093 0.394 0 0.485 0.393 0.878 0.878 0.878 0.001 0 0.001 0 0.002 0h10.235c0.006 0 0.013 0 0.020 0 0.337 0 0.629-0.197 0.765-0.483l0.002-0.005c2.208-4.561 0.87-11.5-3.007-15.646z"></path>
</svg>